<?xml version="1.0" encoding="UTF-8" standalone="no"?>
<svg
   xmlns:dc="http://purl.org/dc/elements/1.1/"
   xmlns:cc="http://creativecommons.org/ns#"
   xmlns:rdf="http://www.w3.org/1999/02/22-rdf-syntax-ns#"
   xmlns:svg="http://www.w3.org/2000/svg"
   xmlns="http://www.w3.org/2000/svg"
   xml:space="preserve"
   enable-background="new 0 0 150 100"
   viewBox="0 0 18.787001 17.999001"
   height="17.999001"
   width="18.787001"
   y="0px"
   x="0px"
   id="Warstwa_1"
   version="1.1"><metadata
   id="metadata31"><rdf:RDF><cc:Work
       rdf:about=""><dc:format>image/svg+xml</dc:format><dc:type
         rdf:resource="http://purl.org/dc/dcmitype/StillImage" /><dc:title></dc:title></cc:Work></rdf:RDF></metadata><defs
   id="defs29" />
<g
   transform="translate(-65.014,-41.081)"
   id="g24">
	<path
   id="path2"
   d="M 83.198,59.08 H 65.615 c -0.332,0 -0.601,-0.27 -0.601,-0.601 V 43.208 c 0,-0.332 0.269,-0.601 0.601,-0.601 h 2.646 c 0.333,0 0.601,0.269 0.601,0.601 0,0.333 -0.269,0.601 -0.601,0.601 H 66.217 V 57.877 H 82.598 V 45.119 c 0,-0.332 0.269,-0.601 0.601,-0.601 0.333,0 0.602,0.269 0.602,0.601 V 58.478 C 83.8,58.811 83.53,59.08 83.198,59.08 Z"
   fill="#ffffff" />
	<path
   id="path4"
   d="m 83.198,43.81 h -2.439 c -0.332,0 -0.602,-0.269 -0.602,-0.601 0,-0.332 0.27,-0.601 0.602,-0.601 h 2.439 c 0.333,0 0.602,0.269 0.602,0.601 0,0.332 -0.27,0.601 -0.602,0.601 z"
   fill="#ffffff" />
	<path
   id="path6"
   d="m 77.045,43.81 h -5.25 c -0.333,0 -0.601,-0.269 -0.601,-0.601 0,-0.332 0.269,-0.601 0.601,-0.601 h 5.25 c 0.332,0 0.601,0.269 0.601,0.601 0,0.332 -0.269,0.601 -0.601,0.601 z"
   fill="#ffffff" />
	<path
   id="path8"
   d="m 70.033,57.19 c -0.332,0 -0.602,-0.269 -0.602,-0.601 v -9.517 c 0,-0.333 0.27,-0.601 0.602,-0.601 0.332,0 0.601,0.269 0.601,0.601 v 9.517 c 0,0.332 -0.269,0.601 -0.601,0.601 z"
   fill="#ffffff" />
	<path
   id="path10"
   d="m 74.466,57.19 c -0.332,0 -0.601,-0.269 -0.601,-0.601 v -9.517 c 0,-0.333 0.27,-0.601 0.601,-0.601 0.332,0 0.602,0.269 0.602,0.601 v 9.517 c -0.001,0.332 -0.27,0.601 -0.602,0.601 z"
   fill="#ffffff" />
	<path
   id="path12"
   d="m 78.9,57.19 c -0.332,0 -0.601,-0.269 -0.601,-0.601 v -9.517 c 0,-0.333 0.269,-0.601 0.601,-0.601 0.332,0 0.601,0.269 0.601,0.601 v 9.517 c 0,0.332 -0.269,0.601 -0.601,0.601 z"
   fill="#ffffff" />
	<path
   id="path14"
   d="M 81.572,47.485 H 67.429 c -0.333,0 -0.602,-0.269 -0.602,-0.601 0,-0.332 0.27,-0.601 0.602,-0.601 h 14.144 c 0.332,0 0.601,0.269 0.601,0.601 -0.001,0.333 -0.271,0.601 -0.602,0.601 z"
   fill="#ffffff" />
	<path
   id="path16"
   d="M 81.572,51.336 H 67.429 c -0.333,0 -0.602,-0.27 -0.602,-0.602 0,-0.332 0.27,-0.601 0.602,-0.601 h 14.144 c 0.332,0 0.601,0.269 0.601,0.601 0,0.332 -0.271,0.602 -0.602,0.602 z"
   fill="#ffffff" />
	<path
   id="path18"
   d="M 81.572,55.066 H 67.429 c -0.333,0 -0.602,-0.269 -0.602,-0.601 0,-0.332 0.27,-0.601 0.602,-0.601 h 14.144 c 0.332,0 0.601,0.269 0.601,0.601 0,0.332 -0.271,0.601 -0.602,0.601 z"
   fill="#ffffff" />
	<path
   id="path20"
   d="m 70.033,45.183 c -0.332,0 -0.602,-0.269 -0.602,-0.601 v -2.9 c 0,-0.333 0.27,-0.601 0.602,-0.601 0.332,0 0.601,0.269 0.601,0.601 v 2.9 c 0,0.332 -0.269,0.601 -0.601,0.601 z"
   fill="#ffffff" />
	<path
   id="path22"
   d="m 78.9,45.183 c -0.332,0 -0.601,-0.269 -0.601,-0.601 v -2.9 c 0,-0.333 0.269,-0.601 0.601,-0.601 0.332,0 0.601,0.269 0.601,0.601 v 2.9 c 0,0.332 -0.269,0.601 -0.601,0.601 z"
   fill="#ffffff" />
</g>
</svg>
